# xmcd CD database file
#
# Track frame offsets:
#	150
#	19285
#	36598
#	70835
#	103270
#	121350
#
# Disc length: 1981 seconds
#
# Revision: 2
# Processed by: cddbd v1.5.1PL0 Copyright (c) Steve Scherf et al.
# Submitted via: CDex 1.51
#
DISCID=5507bb06
DTITLE=Brian Auger - Planet Earth Calling
DYEAR=1987
DGENRE=Jazz
TTITLE0=Planet Earth Calling
TTITLE1=Red Alert
TTITLE2=Sea of Tranquility
TTITLE3=Voyager 3
TTITLE4=I'm Gone
TTITLE5=Golden Gate
EXTD=Del Rack., 1987 YEAR: 1987
EXTT0=
EXTT1=
EXTT2=
EXTT3=
EXTT4=
EXTT5=
PLAYORDER=
